<?xml version="1.0" encoding="utf-8"?>
<!-- Generator: Adobe Illustrator 14.0.0, SVG Export Plug-In . SVG Version: 6.00 Build 43363)  -->
<!DOCTYPE svg PUBLIC "-//W3C//DTD SVG 1.1//EN" "http://www.w3.org/Graphics/SVG/1.1/DTD/svg11.dtd">
<svg version="1.1" id="Layer_1" xmlns="http://www.w3.org/2000/svg" xmlns:xlink="http://www.w3.org/1999/xlink" x="0px" y="0px"
	 width="1000px" height="1000px" viewBox="0 0 1000 1000" enable-background="new 0 0 1000 1000" xml:space="preserve">
<line fill-rule="evenodd" clip-rule="evenodd" fill="#D3D3D3" x1="718.231" y1="281.71" x2="632.231" y2="281.71"/>
<line fill="none" stroke="#A9A9A9" stroke-width="0.4" stroke-miterlimit="10" x1="745.029" y1="289.016" x2="659.029" y2="289.016"/>
<rect x="636.231" y="286.11" fill-rule="evenodd" clip-rule="evenodd" fill="#682860" width="10" height="3.2"/>
<rect x="636.231" y="286.11" fill="none" stroke="#682860" stroke-width="0.4" stroke-miterlimit="10" width="10" height="3.2"/>
<text transform="matrix(1 0 0 1 647.0313 289.3101)" font-family="'Arial-BoldMT'" font-size="4"> - 5&apos; CLONING SITE</text>
<rect x="636.231" y="292.11" fill-rule="evenodd" clip-rule="evenodd" fill="#682860" width="10" height="3.2"/>
<rect x="636.231" y="292.11" fill="none" stroke="#682860" stroke-width="0.4" stroke-miterlimit="10" width="10" height="3.2"/>
<text transform="matrix(1 0 0 1 647.0313 295.3101)" font-family="'Arial-BoldMT'" font-size="4"> - 3&apos; CLONING SITE</text>
<rect x="636.231" y="298.11" fill-rule="evenodd" clip-rule="evenodd" fill="#FF00FF" width="10" height="3.2"/>
<rect x="636.231" y="298.11" fill="none" stroke="#FF00FF" stroke-width="0.4" stroke-miterlimit="10" width="10" height="3.2"/>
<text transform="matrix(1 0 0 1 647.0313 301.3101)" font-family="'Arial-BoldMT'" font-size="4"> - 5&apos; LINKER</text>
<rect x="636.231" y="304.11" fill-rule="evenodd" clip-rule="evenodd" fill="#FF00FF" width="10" height="3.2"/>
<rect x="636.231" y="304.11" fill="none" stroke="#FF00FF" stroke-width="0.4" stroke-miterlimit="10" width="10" height="3.2"/>
<text transform="matrix(1 0 0 1 647.0313 307.3101)" font-family="'Arial-BoldMT'" font-size="4"> - 3&apos; LINKER</text>
<rect x="636.231" y="310.11" fill-rule="evenodd" clip-rule="evenodd" fill="#FF0000" width="10" height="3.2"/>
<rect x="636.231" y="310.11" fill="none" stroke="#FF0000" stroke-width="0.4" stroke-miterlimit="10" width="10" height="3.2"/>
<text transform="matrix(1 0 0 1 647.0313 313.3101)" font-family="'Arial-BoldMT'" font-size="4"> - CDNA INSERT</text>
<rect x="636.231" y="316.11" fill-rule="evenodd" clip-rule="evenodd" fill="#FFC0CB" width="10" height="3.2"/>
<rect x="636.231" y="316.11" fill="none" stroke="#FFC0CB" stroke-width="0.4" stroke-miterlimit="10" width="10" height="3.2"/>
<text transform="matrix(1 0 0 1 647.0313 319.3101)" font-family="'Arial-BoldMT'" font-size="4"> - CLEAVAGE SITE</text>
<rect x="636.231" y="322.11" fill-rule="evenodd" clip-rule="evenodd" fill="#66CDAA" width="10" height="3.2"/>
<rect x="636.231" y="322.11" fill="none" stroke="#66CDAA" stroke-width="0.4" stroke-miterlimit="10" width="10" height="3.2"/>
<text transform="matrix(1 0 0 1 647.0313 325.3101)" font-family="'Arial-BoldMT'" font-size="4"> - F1</text>
<rect x="636.231" y="328.11" fill-rule="evenodd" clip-rule="evenodd" fill="#556B2F" width="10" height="3.2"/>
<rect x="636.231" y="328.11" fill="none" stroke="#556B2F" stroke-width="0.4" stroke-miterlimit="10" width="10" height="3.2"/>
<text transform="matrix(1 0 0 1 647.0313 331.3101)" font-family="'Arial-BoldMT'" font-size="4"> - F2</text>
<rect x="636.231" y="334.11" fill-rule="evenodd" clip-rule="evenodd" fill="#F4A460" width="10" height="3.2"/>
<rect x="636.231" y="334.11" fill="none" stroke="#F4A460" stroke-width="0.4" stroke-miterlimit="10" width="10" height="3.2"/>
<text transform="matrix(1 0 0 1 647.0313 337.3101)" font-family="'Arial-BoldMT'" font-size="4"> - F3</text>
<rect x="636.231" y="340.11" fill-rule="evenodd" clip-rule="evenodd" fill="#9932CC" width="10" height="3.2"/>
<rect x="636.231" y="340.11" fill="none" stroke="#9932CC" stroke-width="0.4" stroke-miterlimit="10" width="10" height="3.2"/>
<text transform="matrix(1 0 0 1 500.1768 301.3101)" fill="#0000FF" font-family="'Arial-BoldMT'" font-size="12.8">Olfr723</text>
<text transform="matrix(1 0 0 1 338.2314 317.3101)" fill="#0000FF" font-family="'Arial-BoldMT'" font-size="4">Features shorter than 150 nt:</text>
<rect x="340.231" y="322.11" fill-rule="evenodd" clip-rule="evenodd" fill="#0000FF" width="6" height="2.4"/>
<rect x="340.231" y="322.11" fill="none" stroke="#0000FF" stroke-width="0.4" stroke-linejoin="round" stroke-miterlimit="10" width="6" height="2.4"/>
<text transform="matrix(1 0 0 1 348.2314 324.5098)" font-family="'Arial-BoldMT'" font-size="4">Ampicillin promoter (4070-4166)</text>
<rect x="340.231" y="328.11" fill-rule="evenodd" clip-rule="evenodd" fill="#0000FF" width="6" height="2.4"/>
<rect x="340.231" y="328.11" fill="none" stroke="#0000FF" stroke-width="0.4" stroke-linejoin="round" stroke-miterlimit="10" width="6" height="2.4"/>
<text transform="matrix(1 0 0 1 348.2314 330.5098)" font-family="'Arial-BoldMT'" font-size="4">Ampicillin promoter (2027-2076)</text>
<rect x="340.231" y="334.11" fill-rule="evenodd" clip-rule="evenodd" fill="#0000FF" width="6" height="2.4"/>
<rect x="340.231" y="334.11" fill="none" stroke="#0000FF" stroke-width="0.4" stroke-linejoin="round" stroke-miterlimit="10" width="6" height="2.4"/>
<text transform="matrix(1 0 0 1 348.2314 336.5098)" font-family="'Arial-BoldMT'" font-size="4">T3 promoter (243-262)</text>
<rect x="340.231" y="340.11" fill-rule="evenodd" clip-rule="evenodd" fill="#0000FF" width="6" height="2.4"/>
<rect x="340.231" y="340.11" fill="none" stroke="#0000FF" stroke-width="0.4" stroke-linejoin="round" stroke-miterlimit="10" width="6" height="2.4"/>
<text transform="matrix(1 0 0 1 348.2314 342.5098)" font-family="'Arial-BoldMT'" font-size="4">T7 promoter (1334-1353)</text>
<rect x="340.231" y="346.11" fill-rule="evenodd" clip-rule="evenodd" fill="#682860" width="6" height="2.4"/>
<rect x="340.231" y="346.11" fill="none" stroke="#682860" stroke-width="0.4" stroke-linejoin="round" stroke-miterlimit="10" width="6" height="2.4"/>
<text transform="matrix(1 0 0 1 348.2314 348.5098)" font-family="'Arial-BoldMT'" font-size="4">EcoRI (283-288)</text>
<rect x="340.231" y="352.11" fill-rule="evenodd" clip-rule="evenodd" fill="#682860" width="6" height="2.4"/>
<rect x="340.231" y="352.11" fill="none" stroke="#682860" stroke-width="0.4" stroke-linejoin="round" stroke-miterlimit="10" width="6" height="2.4"/>
<text transform="matrix(1 0 0 1 348.2314 354.5098)" font-family="'Arial-BoldMT'" font-size="4">EcoRI (1307-1312)</text>
<path fill="none" stroke="#0000FF" stroke-width="0.4" stroke-miterlimit="10" d="M560.632,548.91c0-44.183-35.817-80-80-80
	c-44.183,0-80,35.817-80,80s35.817,80,80,80C524.814,628.91,560.632,593.093,560.632,548.91"/>
<polyline fill-rule="evenodd" clip-rule="evenodd" points="480.631,466.11 478.631,463.31 482.631,463.31 480.631,466.11 "/>
<polyline fill="none" stroke="#000000" stroke-width="0.4" stroke-miterlimit="10" points="480.631,466.11 478.631,463.31 
	482.631,463.31 480.631,466.11 "/>
<text transform="matrix(1 0 0 1 478.6313 461.3101)" font-family="'Arial-BoldMT'" font-size="6.4">1</text>
<text transform="matrix(1 0 0 1 455.0122 534.9102)" fill="#0000FF" font-family="'Arial-BoldMT'" font-size="12.8">V117609</text>
<text transform="matrix(1 0 0 1 449.3286 544.9102)" fill="#0000FF" font-family="'Arial-BoldMT'" font-size="12.8">nt 1 - 4962</text>
<path fill="none" stroke="#FF0000" stroke-width="4" stroke-linejoin="round" stroke-miterlimit="10" d="M509.259,474.207
	c33.223,12.731,54.045,45.874,51.098,81.331"/>
<line fill="none" stroke="#000000" stroke-width="0.4" stroke-linejoin="round" stroke-miterlimit="10" x1="509.974" y1="472.34" x2="526.992" y2="460.783"/>
<text transform="matrix(1 0 0 1 526.9912 460.7827)" fill="#0000FF" font-family="'Arial-BoldMT'" font-size="4.4">cDNA Insert (289-1306)</text>
<path fill="none" stroke="#FDEE00" stroke-width="4" stroke-linejoin="round" stroke-miterlimit="10" d="M416.894,597.259
	c-17.997-23.726-21.327-55.483-8.642-82.426"/>
<line fill="none" stroke="#000000" stroke-width="0.4" stroke-linejoin="round" stroke-miterlimit="10" x1="415.301" y1="598.468" x2="398.283" y2="610.024"/>
<text transform="matrix(1 0 0 1 329.0747 610.0244)" fill="#0000FF" font-family="'Arial-BoldMT'" font-size="4.4">Ampicillin resistance (3209-4069)</text>
<path fill="none" stroke="#FDEE00" stroke-width="4" stroke-linejoin="round" stroke-miterlimit="10" d="M511.795,622.591
	c-25.227,10.67-54.158,7.691-76.683-7.893"/>
<line fill="none" stroke="#000000" stroke-width="0.4" stroke-linejoin="round" stroke-miterlimit="10" x1="512.574" y1="624.433" x2="529.593" y2="635.989"/>
<text transform="matrix(1 0 0 1 529.5918 635.9902)" fill="#0000FF" font-family="'Arial-BoldMT'" font-size="4.4">Kanamycin resistance (2165-2959)</text>
<path fill="none" stroke="#C0C0C0" stroke-width="4" stroke-linejoin="round" stroke-miterlimit="10" d="M413.026,506.136
	c12.338-19.5,32.495-32.723,55.295-36.273"/>
<line fill="none" stroke="#000000" stroke-width="0.4" stroke-linejoin="round" stroke-miterlimit="10" x1="411.336" y1="505.067" x2="394.318" y2="493.51"/>
<text transform="matrix(1 0 0 1 360.0864 493.5098)" fill="#0000FF" font-family="'Arial-BoldMT'" font-size="4.4">pUC (4167-4840)</text>
<path fill="none" stroke="#0000FF" stroke-width="4" stroke-linejoin="round" stroke-miterlimit="10" d="M480.834,468.91
	c7.237,0.019,14.438,1.019,21.407,2.974"/>
<line fill="none" stroke="#000000" stroke-width="0.4" stroke-linejoin="round" stroke-miterlimit="10" x1="480.839" y1="466.91" x2="497.857" y2="455.353"/>
<text transform="matrix(1 0 0 1 497.8569 455.3535)" fill="#0000FF" font-family="'Arial-BoldMT'" font-size="4.4">LAC promoter (2-216)</text>
<path fill="none" stroke="#0000FF" stroke-width="4" stroke-linejoin="round" stroke-miterlimit="10" d="M408.295,514.741
	c1.385-2.932,2.947-5.777,4.677-8.52"/>
<path fill="none" stroke="#0000FF" stroke-width="4" stroke-linejoin="round" stroke-miterlimit="10" d="M524.13,616.051
	c-1.389,0.899-2.805,1.756-4.246,2.567"/>
<path fill="none" stroke="#0000FF" stroke-width="4" stroke-linejoin="round" stroke-miterlimit="10" d="M504.861,472.667
	c0.611,0.194,1.22,0.396,1.827,0.605"/>
<path fill="none" stroke="#0000FF" stroke-width="4" stroke-linejoin="round" stroke-miterlimit="10" d="M560.071,558.359
	c-0.076,0.638-0.159,1.273-0.25,1.908"/>
<path fill="none" stroke="#682860" stroke-width="4" stroke-linejoin="round" stroke-miterlimit="10" d="M508.69,473.992
	c0.157,0.059,0.315,0.119,0.474,0.179"/>
<path fill="none" stroke="#682860" stroke-width="4" stroke-linejoin="round" stroke-miterlimit="10" d="M560.348,555.639
	c-0.014,0.168-0.028,0.336-0.044,0.505"/>
</svg>
